# xmcd
#
# Track frame offsets:
#	150
#	18761
#	38740
#	52621
#	74060
#	87836
#	105854
#	121267
#	139981
#	154130
#	174849
#	189718
#
# Disc length: 2744 seconds
#
# Revision: 1
# Processed by: cddbd v1.5.2PL0 Copyright (c) Steve Scherf et al.
# Submitted via: audiograbber 1.83.01
#
DISCID=900ab60c
DTITLE=Blues Himmel - do fehlt ma was
DYEAR=2009
DGENRE=Blues
TTITLE0=Schtärker als de Wind
TTITLE1=Rick doch e bissje näher
TTITLE2=Zu Schpät
TTITLE3=Do fehlt ma was
TTITLE4=Isch mach de Blues unn du die Wäsch
TTITLE5=Die Lieb iss fort
TTITLE6=Hüh unn Hott
TTITLE7=Wer kann dir jetzt noch vertraun'n
TTITLE8=Richtung Süde
TTITLE9=Meileweit
TTITLE10=Die Kerb
TTITLE11=Schlooflied
EXTD=
EXTT0=
EXTT1=
EXTT2=
EXTT3=
EXTT4=
EXTT5=
EXTT6=
EXTT7=
EXTT8=
EXTT9=
EXTT10=
EXTT11=
PLAYORDER=
